<svg xmlns="http://www.w3.org/2000/svg" xmlns:xlink="http://www.w3.org/1999/xlink" width="600" zoomAndPan="magnify" viewBox="0 0 450 127.500001" height="170" preserveAspectRatio="xMidYMid meet" version="1.2"><defs><clipPath id="10e1b1c97e"><path d="M 0.878906 40 L 42 40 L 42 82 L 0.878906 82 Z M 0.878906 40 "/></clipPath><filter x="0%" y="0%" width="100%" filterUnits="objectBoundingBox" id="7850d8f0e5" height="100%"><feColorMatrix values="0 0 0 0 1 0 0 0 0 1 0 0 0 0 1 0 0 0 1 0" type="matrix" in="SourceGraphic"/></filter><clipPath id="8d2bb5e017"><path d="M 1 1 L 41 1 L 41 41 L 1 41 Z M 1 1 "/></clipPath><clipPath id="59d3415901"><path d="M 5.007812 0.59375 L 41.277344 4.699219 L 37.140625 41.25 L 0.871094 37.148438 Z M 5.007812 0.59375 "/></clipPath><clipPath id="be159b885e"><path d="M 11.109375 1.285156 L 35.171875 4.007812 C 38.542969 4.390625 40.964844 7.429688 40.585938 10.800781 L 37.839844 35.082031 C 37.457031 38.449219 34.414062 40.875 31.046875 40.492188 L 6.980469 37.769531 C 3.609375 37.390625 1.1875 34.347656 1.570312 30.976562 L 4.316406 6.695312 C 4.695312 3.328125 7.738281 0.902344 11.109375 1.285156 Z M 11.109375 1.285156 "/></clipPath><clipPath id="b81ff867e8"><rect x="0" width="42" y="0" height="42"/></clipPath><clipPath id="d2b1ecf021"><path d="M 4 45 L 44 45 L 44 85 L 4 85 Z M 4 45 "/></clipPath><clipPath id="1d456a68d5"><path d="M 7.9375 45.113281 L 44.359375 48.761719 L 40.710938 85.1875 L 4.285156 81.535156 Z M 7.9375 45.113281 "/></clipPath><clipPath id="da9b1992bc"><path d="M 7.9375 45.113281 L 44.148438 48.742188 L 40.429688 85.863281 L 4.214844 82.234375 Z M 7.9375 45.113281 "/></clipPath><clipPath id="3cef1a9455"><path d="M 14.027344 45.726562 L 38.046875 48.132812 C 41.414062 48.46875 43.867188 51.46875 43.53125 54.832031 L 41.101562 79.070312 C 40.765625 82.433594 37.761719 84.886719 34.398438 84.550781 L 10.378906 82.144531 C 7.015625 81.808594 4.558594 78.804688 4.898438 75.441406 L 7.324219 51.207031 C 7.664062 47.839844 10.664062 45.386719 14.027344 45.726562 Z M 14.027344 45.726562 "/></clipPath><clipPath id="6d94391cd3"><path d="M 9 0 L 49 0 L 49 40 L 9 40 Z M 9 0 "/></clipPath><clipPath id="d6af9ff770"><path d="M 8.84375 3.339844 L 45.113281 -0.746094 L 49.234375 35.808594 L 12.960938 39.894531 Z M 8.84375 3.339844 "/></clipPath><clipPath id="97c800de79"><path d="M 14.945312 2.652344 L 39.011719 -0.0585938 C 42.382812 -0.441406 45.421875 1.984375 45.800781 5.355469 L 48.539062 29.636719 C 48.917969 33.007812 46.492188 36.046875 43.121094 36.425781 L 19.058594 39.136719 C 15.6875 39.519531 12.644531 37.09375 12.265625 33.722656 L 9.53125 9.441406 C 9.152344 6.070312 11.574219 3.03125 14.945312 2.652344 Z M 14.945312 2.652344 "/></clipPath><clipPath id="c7b3a9b064"><path d="M 14 3 L 54 3 L 54 43 L 14 43 Z M 14 3 "/></clipPath><clipPath id="a04f8d1d26"><path d="M 13.679688 6.289062 L 50.089844 2.484375 L 53.890625 38.894531 L 17.484375 42.695312 Z M 13.679688 6.289062 "/></clipPath><clipPath id="bafdb81411"><path d="M 13.679688 6.292969 L 49.878906 2.511719 L 53.753906 39.613281 L 17.554688 43.394531 Z M 13.679688 6.292969 "/></clipPath><clipPath id="9f4f88d59d"><path d="M 19.769531 5.65625 L 43.78125 3.148438 C 47.144531 2.796875 50.15625 5.238281 50.503906 8.601562 L 53.035156 32.828125 C 53.386719 36.1875 50.945312 39.199219 47.582031 39.550781 L 23.574219 42.058594 C 20.210938 42.410156 17.199219 39.96875 16.847656 36.605469 L 14.316406 12.378906 C 13.964844 9.015625 16.40625 6.007812 19.769531 5.65625 Z M 19.769531 5.65625 "/></clipPath><clipPath id="4cf7b58078"><path d="M 0.957031 0.285156 L 37.457031 0.285156 L 37.457031 37.214844 L 0.957031 37.214844 Z M 0.957031 0.285156 "/></clipPath><clipPath id="775865f1c8"><path d="M 7.097656 0.285156 L 31.316406 0.285156 C 34.707031 0.285156 37.457031 3.035156 37.457031 6.425781 L 37.457031 31.023438 C 37.457031 34.414062 34.707031 37.164062 31.316406 37.164062 L 7.097656 37.164062 C 3.707031 37.164062 0.957031 34.414062 0.957031 31.023438 L 0.957031 6.425781 C 0.957031 3.035156 3.707031 0.285156 7.097656 0.285156 Z M 7.097656 0.285156 "/></clipPath><clipPath id="ed61a97e1a"><rect x="0" width="38" y="0" height="38"/></clipPath><clipPath id="53f4b3188c"><path d="M 15.488281 89.433594 L 51.882812 89.433594 L 51.882812 126.039062 L 15.488281 126.039062 Z M 15.488281 89.433594 "/></clipPath><clipPath id="5a839e5725"><path d="M 21.609375 89.433594 L 45.753906 89.433594 C 49.132812 89.433594 51.875 92.175781 51.875 95.554688 L 51.875 119.914062 C 51.875 123.292969 49.132812 126.035156 45.753906 126.035156 L 21.609375 126.035156 C 18.230469 126.035156 15.488281 123.292969 15.488281 119.914062 L 15.488281 95.554688 C 15.488281 92.175781 18.230469 89.433594 21.609375 89.433594 Z M 21.609375 89.433594 "/></clipPath></defs><g id="a76ef4bf8d"><g style="fill:#444444;fill-opacity:1;"><g transform="translate(59.189036, 83.113229)"><path style="stroke:none" d="M 39.21875 -19.703125 C 39.21875 -16.753906 38.75 -14.066406 37.8125 -11.640625 C 36.875 -9.222656 35.550781 -7.148438 33.84375 -5.421875 C 32.144531 -3.691406 30.097656 -2.351562 27.703125 -1.40625 C 25.304688 -0.46875 22.660156 0 19.765625 0 L 5.03125 0 L 5.03125 -39.4375 L 19.765625 -39.4375 C 22.660156 -39.4375 25.304688 -38.960938 27.703125 -38.015625 C 30.097656 -37.078125 32.144531 -35.738281 33.84375 -34 C 35.550781 -32.269531 36.875 -30.191406 37.8125 -27.765625 C 38.75 -25.347656 39.21875 -22.660156 39.21875 -19.703125 Z M 33.75 -19.703125 C 33.75 -22.128906 33.414062 -24.296875 32.75 -26.203125 C 32.09375 -28.109375 31.15625 -29.722656 29.9375 -31.046875 C 28.726562 -32.367188 27.257812 -33.378906 25.53125 -34.078125 C 23.8125 -34.773438 21.890625 -35.125 19.765625 -35.125 L 10.375 -35.125 L 10.375 -4.328125 L 19.765625 -4.328125 C 21.890625 -4.328125 23.8125 -4.671875 25.53125 -5.359375 C 27.257812 -6.054688 28.726562 -7.0625 29.9375 -8.375 C 31.15625 -9.6875 32.09375 -11.296875 32.75 -13.203125 C 33.414062 -15.117188 33.75 -17.285156 33.75 -19.703125 Z M 33.75 -19.703125 "/></g></g><g style="fill:#444444;fill-opacity:1;"><g transform="translate(98.740334, 83.113229)"><path style="stroke:none" d="M 8.53125 -22.296875 C 9.414062 -24.203125 10.5 -25.691406 11.78125 -26.765625 C 13.0625 -27.835938 14.628906 -28.375 16.484375 -28.375 C 17.078125 -28.375 17.640625 -28.304688 18.171875 -28.171875 C 18.710938 -28.046875 19.195312 -27.847656 19.625 -27.578125 L 19.265625 -23.921875 C 19.148438 -23.460938 18.875 -23.234375 18.4375 -23.234375 C 18.1875 -23.234375 17.8125 -23.285156 17.3125 -23.390625 C 16.8125 -23.503906 16.253906 -23.5625 15.640625 -23.5625 C 14.753906 -23.5625 13.96875 -23.429688 13.28125 -23.171875 C 12.59375 -22.921875 11.976562 -22.539062 11.4375 -22.03125 C 10.894531 -21.53125 10.40625 -20.90625 9.96875 -20.15625 C 9.539062 -19.414062 9.15625 -18.566406 8.8125 -17.609375 L 8.8125 0 L 3.875 0 L 3.875 -27.875 L 6.6875 -27.875 C 7.21875 -27.875 7.582031 -27.773438 7.78125 -27.578125 C 7.988281 -27.378906 8.128906 -27.03125 8.203125 -26.53125 Z M 8.53125 -22.296875 "/></g></g><g style="fill:#444444;fill-opacity:1;"><g transform="translate(116.465279, 83.113229)"><path style="stroke:none" d=""/></g></g><g style="fill:#444444;fill-opacity:1;"><g transform="translate(128.245088, 83.113229)"><path style="stroke:none" d="M 41.484375 -19.703125 C 41.484375 -16.753906 41.015625 -14.046875 40.078125 -11.578125 C 39.140625 -9.109375 37.816406 -6.984375 36.109375 -5.203125 C 34.398438 -3.421875 32.347656 -2.039062 29.953125 -1.0625 C 27.566406 -0.0820312 24.921875 0.40625 22.015625 0.40625 C 19.117188 0.40625 16.476562 -0.0820312 14.09375 -1.0625 C 11.707031 -2.039062 9.660156 -3.421875 7.953125 -5.203125 C 6.242188 -6.984375 4.921875 -9.109375 3.984375 -11.578125 C 3.054688 -14.046875 2.59375 -16.753906 2.59375 -19.703125 C 2.59375 -22.660156 3.054688 -25.375 3.984375 -27.84375 C 4.921875 -30.3125 6.242188 -32.4375 7.953125 -34.21875 C 9.660156 -36.007812 11.707031 -37.398438 14.09375 -38.390625 C 16.476562 -39.378906 19.117188 -39.875 22.015625 -39.875 C 24.921875 -39.875 27.566406 -39.378906 29.953125 -38.390625 C 32.347656 -37.398438 34.398438 -36.007812 36.109375 -34.21875 C 37.816406 -32.4375 39.140625 -30.3125 40.078125 -27.84375 C 41.015625 -25.375 41.484375 -22.660156 41.484375 -19.703125 Z M 36 -19.703125 C 36 -22.128906 35.664062 -24.304688 35 -26.234375 C 34.34375 -28.160156 33.410156 -29.785156 32.203125 -31.109375 C 30.992188 -32.441406 29.523438 -33.460938 27.796875 -34.171875 C 26.078125 -34.890625 24.148438 -35.25 22.015625 -35.25 C 19.910156 -35.25 17.992188 -34.890625 16.265625 -34.171875 C 14.535156 -33.460938 13.0625 -32.441406 11.84375 -31.109375 C 10.625 -29.785156 9.679688 -28.160156 9.015625 -26.234375 C 8.359375 -24.304688 8.03125 -22.128906 8.03125 -19.703125 C 8.03125 -17.285156 8.359375 -15.117188 9.015625 -13.203125 C 9.679688 -11.285156 10.625 -9.660156 11.84375 -8.328125 C 13.0625 -6.992188 14.535156 -5.972656 16.265625 -5.265625 C 17.992188 -4.566406 19.910156 -4.21875 22.015625 -4.21875 C 24.148438 -4.21875 26.078125 -4.566406 27.796875 -5.265625 C 29.523438 -5.972656 30.992188 -6.992188 32.203125 -8.328125 C 33.410156 -9.660156 34.34375 -11.285156 35 -13.203125 C 35.664062 -15.117188 36 -17.285156 36 -19.703125 Z M 36 -19.703125 "/></g></g><g style="fill:#444444;fill-opacity:1;"><g transform="translate(169.998288, 83.113229)"><path style="stroke:none" d="M 8.9375 -40.546875 L 8.9375 0 L 4.046875 0 L 4.046875 -40.546875 Z M 8.9375 -40.546875 "/></g></g><g style="fill:#444444;fill-opacity:1;"><g transform="translate(180.677147, 83.113229)"><path style="stroke:none" d="M 9.0625 -27.875 L 9.0625 0 L 4.15625 0 L 4.15625 -27.875 Z M 10.09375 -36.640625 C 10.09375 -36.160156 9.992188 -35.710938 9.796875 -35.296875 C 9.609375 -34.878906 9.351562 -34.507812 9.03125 -34.1875 C 8.71875 -33.875 8.34375 -33.625 7.90625 -33.4375 C 7.476562 -33.257812 7.023438 -33.171875 6.546875 -33.171875 C 6.066406 -33.171875 5.617188 -33.257812 5.203125 -33.4375 C 4.796875 -33.625 4.4375 -33.875 4.125 -34.1875 C 3.8125 -34.507812 3.5625 -34.878906 3.375 -35.296875 C 3.195312 -35.710938 3.109375 -36.160156 3.109375 -36.640625 C 3.109375 -37.109375 3.195312 -37.554688 3.375 -37.984375 C 3.5625 -38.421875 3.8125 -38.800781 4.125 -39.125 C 4.4375 -39.445312 4.796875 -39.695312 5.203125 -39.875 C 5.617188 -40.0625 6.066406 -40.15625 6.546875 -40.15625 C 7.023438 -40.15625 7.476562 -40.0625 7.90625 -39.875 C 8.34375 -39.695312 8.71875 -39.445312 9.03125 -39.125 C 9.351562 -38.800781 9.609375 -38.421875 9.796875 -37.984375 C 9.992188 -37.554688 10.09375 -37.109375 10.09375 -36.640625 Z M 10.09375 -36.640625 "/></g></g><g style="fill:#444444;fill-opacity:1;"><g transform="translate(191.576195, 83.113229)"><path style="stroke:none" d="M 27.765625 -27.875 L 16.40625 0 L 12 0 L 0.640625 -27.875 L 4.625 -27.875 C 5.03125 -27.875 5.359375 -27.773438 5.609375 -27.578125 C 5.867188 -27.378906 6.046875 -27.140625 6.140625 -26.859375 L 13.21875 -8.921875 C 13.4375 -8.242188 13.625 -7.582031 13.78125 -6.9375 C 13.945312 -6.289062 14.101562 -5.648438 14.25 -5.015625 C 14.40625 -5.648438 14.5625 -6.289062 14.71875 -6.9375 C 14.882812 -7.582031 15.085938 -8.242188 15.328125 -8.921875 L 22.484375 -26.859375 C 22.597656 -27.148438 22.78125 -27.390625 23.03125 -27.578125 C 23.289062 -27.773438 23.597656 -27.875 23.953125 -27.875 Z M 27.765625 -27.875 "/></g></g><g style="fill:#444444;fill-opacity:1;"><g transform="translate(217.668367, 83.113229)"><path style="stroke:none" d="M 9.0625 -27.875 L 9.0625 0 L 4.15625 0 L 4.15625 -27.875 Z M 10.09375 -36.640625 C 10.09375 -36.160156 9.992188 -35.710938 9.796875 -35.296875 C 9.609375 -34.878906 9.351562 -34.507812 9.03125 -34.1875 C 8.71875 -33.875 8.34375 -33.625 7.90625 -33.4375 C 7.476562 -33.257812 7.023438 -33.171875 6.546875 -33.171875 C 6.066406 -33.171875 5.617188 -33.257812 5.203125 -33.4375 C 4.796875 -33.625 4.4375 -33.875 4.125 -34.1875 C 3.8125 -34.507812 3.5625 -34.878906 3.375 -35.296875 C 3.195312 -35.710938 3.109375 -36.160156 3.109375 -36.640625 C 3.109375 -37.109375 3.195312 -37.554688 3.375 -37.984375 C 3.5625 -38.421875 3.8125 -38.800781 4.125 -39.125 C 4.4375 -39.445312 4.796875 -39.695312 5.203125 -39.875 C 5.617188 -40.0625 6.066406 -40.15625 6.546875 -40.15625 C 7.023438 -40.15625 7.476562 -40.0625 7.90625 -39.875 C 8.34375 -39.695312 8.71875 -39.445312 9.03125 -39.125 C 9.351562 -38.800781 9.609375 -38.421875 9.796875 -37.984375 C 9.992188 -37.554688 10.09375 -37.109375 10.09375 -36.640625 Z M 10.09375 -36.640625 "/></g></g><g style="fill:#444444;fill-opacity:1;"><g transform="translate(228.567416, 83.113229)"><path style="stroke:none" d="M 22.546875 -16.984375 C 22.546875 -18.117188 22.382812 -19.15625 22.0625 -20.09375 C 21.738281 -21.039062 21.269531 -21.859375 20.65625 -22.546875 C 20.039062 -23.242188 19.289062 -23.78125 18.40625 -24.15625 C 17.53125 -24.53125 16.53125 -24.71875 15.40625 -24.71875 C 13.0625 -24.71875 11.207031 -24.03125 9.84375 -22.65625 C 8.476562 -21.289062 7.628906 -19.398438 7.296875 -16.984375 Z M 26.5 -3.90625 C 25.894531 -3.175781 25.171875 -2.539062 24.328125 -2 C 23.484375 -1.457031 22.578125 -1.007812 21.609375 -0.65625 C 20.648438 -0.3125 19.65625 -0.0507812 18.625 0.125 C 17.601562 0.300781 16.585938 0.390625 15.578125 0.390625 C 13.648438 0.390625 11.875 0.0664062 10.25 -0.578125 C 8.625 -1.234375 7.21875 -2.191406 6.03125 -3.453125 C 4.851562 -4.710938 3.929688 -6.269531 3.265625 -8.125 C 2.609375 -9.976562 2.28125 -12.101562 2.28125 -14.5 C 2.28125 -16.445312 2.578125 -18.265625 3.171875 -19.953125 C 3.773438 -21.640625 4.632812 -23.101562 5.75 -24.34375 C 6.875 -25.582031 8.242188 -26.554688 9.859375 -27.265625 C 11.472656 -27.972656 13.285156 -28.328125 15.296875 -28.328125 C 16.972656 -28.328125 18.519531 -28.046875 19.9375 -27.484375 C 21.363281 -26.921875 22.59375 -26.113281 23.625 -25.0625 C 24.664062 -24.007812 25.476562 -22.707031 26.0625 -21.15625 C 26.65625 -19.601562 26.953125 -17.835938 26.953125 -15.859375 C 26.953125 -15.085938 26.867188 -14.570312 26.703125 -14.3125 C 26.535156 -14.050781 26.222656 -13.921875 25.765625 -13.921875 L 7.125 -13.921875 C 7.1875 -12.160156 7.429688 -10.628906 7.859375 -9.328125 C 8.285156 -8.023438 8.882812 -6.9375 9.65625 -6.0625 C 10.425781 -5.195312 11.34375 -4.546875 12.40625 -4.109375 C 13.476562 -3.679688 14.671875 -3.46875 15.984375 -3.46875 C 17.210938 -3.46875 18.269531 -3.609375 19.15625 -3.890625 C 20.050781 -4.179688 20.820312 -4.488281 21.46875 -4.8125 C 22.113281 -5.144531 22.648438 -5.453125 23.078125 -5.734375 C 23.503906 -6.023438 23.875 -6.171875 24.1875 -6.171875 C 24.59375 -6.171875 24.90625 -6.015625 25.125 -5.703125 Z M 26.5 -3.90625 "/></g></g><g style="fill:#444444;fill-opacity:1;"><g transform="translate(255.320146, 83.113229)"><path style="stroke:none" d="M 8.53125 -22.296875 C 9.414062 -24.203125 10.5 -25.691406 11.78125 -26.765625 C 13.0625 -27.835938 14.628906 -28.375 16.484375 -28.375 C 17.078125 -28.375 17.640625 -28.304688 18.171875 -28.171875 C 18.710938 -28.046875 19.195312 -27.847656 19.625 -27.578125 L 19.265625 -23.921875 C 19.148438 -23.460938 18.875 -23.234375 18.4375 -23.234375 C 18.1875 -23.234375 17.8125 -23.285156 17.3125 -23.390625 C 16.8125 -23.503906 16.253906 -23.5625 15.640625 -23.5625 C 14.753906 -23.5625 13.96875 -23.429688 13.28125 -23.171875 C 12.59375 -22.921875 11.976562 -22.539062 11.4375 -22.03125 C 10.894531 -21.53125 10.40625 -20.90625 9.96875 -20.15625 C 9.539062 -19.414062 9.15625 -18.566406 8.8125 -17.609375 L 8.8125 0 L 3.875 0 L 3.875 -27.875 L 6.6875 -27.875 C 7.21875 -27.875 7.582031 -27.773438 7.78125 -27.578125 C 7.988281 -27.378906 8.128906 -27.03125 8.203125 -26.53125 Z M 8.53125 -22.296875 "/></g></g><g style="fill:#444444;fill-opacity:1;"><g transform="translate(273.045102, 83.113229)"><path style="stroke:none" d=""/></g></g><g style="fill:#444444;fill-opacity:1;"><g transform="translate(284.824912, 83.113229)"><path style="stroke:none" d="M 27.40625 -4.484375 L 27.40625 0 L 5.03125 0 L 5.03125 -39.4375 L 10.34375 -39.4375 L 10.34375 -4.484375 Z M 27.40625 -4.484375 "/></g></g><g style="fill:#444444;fill-opacity:1;"><g transform="translate(310.779468, 83.113229)"><path style="stroke:none" d="M 22.546875 -16.984375 C 22.546875 -18.117188 22.382812 -19.15625 22.0625 -20.09375 C 21.738281 -21.039062 21.269531 -21.859375 20.65625 -22.546875 C 20.039062 -23.242188 19.289062 -23.78125 18.40625 -24.15625 C 17.53125 -24.53125 16.53125 -24.71875 15.40625 -24.71875 C 13.0625 -24.71875 11.207031 -24.03125 9.84375 -22.65625 C 8.476562 -21.289062 7.628906 -19.398438 7.296875 -16.984375 Z M 26.5 -3.90625 C 25.894531 -3.175781 25.171875 -2.539062 24.328125 -2 C 23.484375 -1.457031 22.578125 -1.007812 21.609375 -0.65625 C 20.648438 -0.3125 19.65625 -0.0507812 18.625 0.125 C 17.601562 0.300781 16.585938 0.390625 15.578125 0.390625 C 13.648438 0.390625 11.875 0.0664062 10.25 -0.578125 C 8.625 -1.234375 7.21875 -2.191406 6.03125 -3.453125 C 4.851562 -4.710938 3.929688 -6.269531 3.265625 -8.125 C 2.609375 -9.976562 2.28125 -12.101562 2.28125 -14.5 C 2.28125 -16.445312 2.578125 -18.265625 3.171875 -19.953125 C 3.773438 -21.640625 4.632812 -23.101562 5.75 -24.34375 C 6.875 -25.582031 8.242188 -26.554688 9.859375 -27.265625 C 11.472656 -27.972656 13.285156 -28.328125 15.296875 -28.328125 C 16.972656 -28.328125 18.519531 -28.046875 19.9375 -27.484375 C 21.363281 -26.921875 22.59375 -26.113281 23.625 -25.0625 C 24.664062 -24.007812 25.476562 -22.707031 26.0625 -21.15625 C 26.65625 -19.601562 26.953125 -17.835938 26.953125 -15.859375 C 26.953125 -15.085938 26.867188 -14.570312 26.703125 -14.3125 C 26.535156 -14.050781 26.222656 -13.921875 25.765625 -13.921875 L 7.125 -13.921875 C 7.1875 -12.160156 7.429688 -10.628906 7.859375 -9.328125 C 8.285156 -8.023438 8.882812 -6.9375 9.65625 -6.0625 C 10.425781 -5.195312 11.34375 -4.546875 12.40625 -4.109375 C 13.476562 -3.679688 14.671875 -3.46875 15.984375 -3.46875 C 17.210938 -3.46875 18.269531 -3.609375 19.15625 -3.890625 C 20.050781 -4.179688 20.820312 -4.488281 21.46875 -4.8125 C 22.113281 -5.144531 22.648438 -5.453125 23.078125 -5.734375 C 23.503906 -6.023438 23.875 -6.171875 24.1875 -6.171875 C 24.59375 -6.171875 24.90625 -6.015625 25.125 -5.703125 Z M 26.5 -3.90625 "/></g></g><g style="fill:#444444;fill-opacity:1;"><g transform="translate(337.53221, 83.113229)"><path style="stroke:none" d="M 13.59375 -13.625 C 14.582031 -13.625 15.453125 -13.757812 16.203125 -14.03125 C 16.960938 -14.3125 17.597656 -14.695312 18.109375 -15.1875 C 18.617188 -15.6875 19.003906 -16.28125 19.265625 -16.96875 C 19.523438 -17.65625 19.65625 -18.410156 19.65625 -19.234375 C 19.65625 -20.941406 19.132812 -22.300781 18.09375 -23.3125 C 17.0625 -24.320312 15.5625 -24.828125 13.59375 -24.828125 C 11.613281 -24.828125 10.101562 -24.320312 9.0625 -23.3125 C 8.03125 -22.300781 7.515625 -20.941406 7.515625 -19.234375 C 7.515625 -18.410156 7.644531 -17.65625 7.90625 -16.96875 C 8.175781 -16.28125 8.566406 -15.6875 9.078125 -15.1875 C 9.597656 -14.695312 10.234375 -14.3125 10.984375 -14.03125 C 11.734375 -13.757812 12.601562 -13.625 13.59375 -13.625 Z M 22.4375 1.515625 C 22.4375 0.835938 22.242188 0.289062 21.859375 -0.125 C 21.472656 -0.550781 20.953125 -0.882812 20.296875 -1.125 C 19.648438 -1.363281 18.894531 -1.53125 18.03125 -1.625 C 17.164062 -1.726562 16.25 -1.804688 15.28125 -1.859375 C 14.320312 -1.921875 13.347656 -1.976562 12.359375 -2.03125 C 11.367188 -2.09375 10.414062 -2.1875 9.5 -2.3125 C 8.46875 -1.832031 7.625 -1.226562 6.96875 -0.5 C 6.320312 0.21875 6 1.0625 6 2.03125 C 6 2.65625 6.160156 3.238281 6.484375 3.78125 C 6.804688 4.320312 7.296875 4.789062 7.953125 5.1875 C 8.609375 5.582031 9.4375 5.894531 10.4375 6.125 C 11.4375 6.351562 12.617188 6.46875 13.984375 6.46875 C 15.304688 6.46875 16.488281 6.347656 17.53125 6.109375 C 18.570312 5.867188 19.457031 5.53125 20.1875 5.09375 C 20.914062 4.65625 21.472656 4.128906 21.859375 3.515625 C 22.242188 2.910156 22.4375 2.242188 22.4375 1.515625 Z M 27.40625 -26.78125 L 27.40625 -24.96875 C 27.40625 -24.363281 27.019531 -23.976562 26.25 -23.8125 L 23.09375 -23.390625 C 23.71875 -22.179688 24.03125 -20.84375 24.03125 -19.375 C 24.03125 -18.019531 23.765625 -16.785156 23.234375 -15.671875 C 22.710938 -14.566406 21.992188 -13.617188 21.078125 -12.828125 C 20.160156 -12.035156 19.0625 -11.425781 17.78125 -11 C 16.5 -10.582031 15.101562 -10.375 13.59375 -10.375 C 12.289062 -10.375 11.0625 -10.53125 9.90625 -10.84375 C 9.320312 -10.476562 8.875 -10.085938 8.5625 -9.671875 C 8.25 -9.265625 8.09375 -8.847656 8.09375 -8.421875 C 8.09375 -7.765625 8.363281 -7.265625 8.90625 -6.921875 C 9.445312 -6.578125 10.15625 -6.332031 11.03125 -6.1875 C 11.914062 -6.039062 12.921875 -5.945312 14.046875 -5.90625 C 15.179688 -5.875 16.335938 -5.816406 17.515625 -5.734375 C 18.703125 -5.648438 19.859375 -5.507812 20.984375 -5.3125 C 22.109375 -5.113281 23.113281 -4.785156 24 -4.328125 C 24.882812 -3.867188 25.597656 -3.234375 26.140625 -2.421875 C 26.679688 -1.617188 26.953125 -0.570312 26.953125 0.71875 C 26.953125 1.90625 26.648438 3.054688 26.046875 4.171875 C 25.453125 5.296875 24.59375 6.296875 23.46875 7.171875 C 22.351562 8.046875 20.984375 8.742188 19.359375 9.265625 C 17.734375 9.785156 15.90625 10.046875 13.875 10.046875 C 11.832031 10.046875 10.050781 9.84375 8.53125 9.4375 C 7.007812 9.03125 5.742188 8.488281 4.734375 7.8125 C 3.722656 7.132812 2.960938 6.347656 2.453125 5.453125 C 1.953125 4.566406 1.703125 3.640625 1.703125 2.671875 C 1.703125 1.296875 2.132812 0.132812 3 -0.8125 C 3.863281 -1.769531 5.046875 -2.535156 6.546875 -3.109375 C 5.722656 -3.472656 5.066406 -3.960938 4.578125 -4.578125 C 4.097656 -5.191406 3.859375 -6.023438 3.859375 -7.078125 C 3.859375 -7.472656 3.929688 -7.882812 4.078125 -8.3125 C 4.222656 -8.75 4.445312 -9.179688 4.75 -9.609375 C 5.050781 -10.046875 5.421875 -10.457031 5.859375 -10.84375 C 6.296875 -11.226562 6.8125 -11.566406 7.40625 -11.859375 C 6.03125 -12.628906 4.957031 -13.648438 4.1875 -14.921875 C 3.414062 -16.203125 3.03125 -17.6875 3.03125 -19.375 C 3.03125 -20.726562 3.289062 -21.960938 3.8125 -23.078125 C 4.332031 -24.191406 5.0625 -25.132812 6 -25.90625 C 6.9375 -26.6875 8.050781 -27.285156 9.34375 -27.703125 C 10.632812 -28.128906 12.050781 -28.34375 13.59375 -28.34375 C 14.800781 -28.34375 15.925781 -28.207031 16.96875 -27.9375 C 18.019531 -27.675781 18.976562 -27.289062 19.84375 -26.78125 Z M 27.40625 -26.78125 "/></g></g><g style="fill:#444444;fill-opacity:1;"><g transform="translate(363.844572, 83.113229)"><path style="stroke:none" d="M 18.984375 -12.546875 C 16.734375 -12.472656 14.8125 -12.296875 13.21875 -12.015625 C 11.632812 -11.734375 10.34375 -11.363281 9.34375 -10.90625 C 8.34375 -10.445312 7.617188 -9.90625 7.171875 -9.28125 C 6.722656 -8.65625 6.5 -7.957031 6.5 -7.1875 C 6.5 -6.445312 6.617188 -5.8125 6.859375 -5.28125 C 7.097656 -4.75 7.421875 -4.3125 7.828125 -3.96875 C 8.242188 -3.632812 8.726562 -3.390625 9.28125 -3.234375 C 9.84375 -3.078125 10.445312 -3 11.09375 -3 C 11.957031 -3 12.742188 -3.082031 13.453125 -3.25 C 14.171875 -3.425781 14.847656 -3.679688 15.484375 -4.015625 C 16.117188 -4.347656 16.722656 -4.742188 17.296875 -5.203125 C 17.878906 -5.660156 18.441406 -6.179688 18.984375 -6.765625 Z M 3.171875 -23.953125 C 4.710938 -25.429688 6.367188 -26.535156 8.140625 -27.265625 C 9.921875 -28.003906 11.894531 -28.375 14.0625 -28.375 C 15.625 -28.375 17.007812 -28.113281 18.21875 -27.59375 C 19.425781 -27.082031 20.441406 -26.367188 21.265625 -25.453125 C 22.097656 -24.535156 22.722656 -23.425781 23.140625 -22.125 C 23.566406 -20.820312 23.78125 -19.390625 23.78125 -17.828125 L 23.78125 0 L 21.609375 0 C 21.128906 0 20.757812 -0.078125 20.5 -0.234375 C 20.25 -0.390625 20.050781 -0.695312 19.90625 -1.15625 L 19.34375 -3.796875 C 18.613281 -3.117188 17.898438 -2.519531 17.203125 -2 C 16.503906 -1.476562 15.769531 -1.035156 15 -0.671875 C 14.226562 -0.316406 13.40625 -0.046875 12.53125 0.140625 C 11.664062 0.335938 10.703125 0.4375 9.640625 0.4375 C 8.554688 0.4375 7.535156 0.285156 6.578125 -0.015625 C 5.617188 -0.316406 4.785156 -0.769531 4.078125 -1.375 C 3.378906 -1.976562 2.820312 -2.742188 2.40625 -3.671875 C 1.988281 -4.597656 1.78125 -5.695312 1.78125 -6.96875 C 1.78125 -8.0625 2.082031 -9.117188 2.6875 -10.140625 C 3.300781 -11.160156 4.285156 -12.0625 5.640625 -12.84375 C 6.992188 -13.632812 8.765625 -14.28125 10.953125 -14.78125 C 13.140625 -15.289062 15.816406 -15.582031 18.984375 -15.65625 L 18.984375 -17.828125 C 18.984375 -19.992188 18.515625 -21.628906 17.578125 -22.734375 C 16.648438 -23.847656 15.285156 -24.40625 13.484375 -24.40625 C 12.273438 -24.40625 11.257812 -24.253906 10.4375 -23.953125 C 9.625 -23.648438 8.921875 -23.3125 8.328125 -22.9375 C 7.734375 -22.5625 7.21875 -22.222656 6.78125 -21.921875 C 6.351562 -21.617188 5.925781 -21.46875 5.5 -21.46875 C 5.175781 -21.46875 4.894531 -21.550781 4.65625 -21.71875 C 4.414062 -21.894531 4.210938 -22.113281 4.046875 -22.375 Z M 3.171875 -23.953125 "/></g></g><g style="fill:#444444;fill-opacity:1;"><g transform="translate(388.890842, 83.113229)"><path style="stroke:none" d="M 26.8125 -27.875 L 26.8125 0 L 23.890625 0 C 23.191406 0 22.75 -0.335938 22.5625 -1.015625 L 22.1875 -4.015625 C 20.976562 -2.679688 19.617188 -1.601562 18.109375 -0.78125 C 16.609375 0.03125 14.882812 0.4375 12.9375 0.4375 C 11.414062 0.4375 10.070312 0.1875 8.90625 -0.3125 C 7.738281 -0.820312 6.757812 -1.535156 5.96875 -2.453125 C 5.1875 -3.367188 4.597656 -4.476562 4.203125 -5.78125 C 3.804688 -7.082031 3.609375 -8.519531 3.609375 -10.09375 L 3.609375 -27.875 L 8.5 -27.875 L 8.5 -10.09375 C 8.5 -7.988281 8.976562 -6.359375 9.9375 -5.203125 C 10.90625 -4.046875 12.382812 -3.46875 14.375 -3.46875 C 15.820312 -3.46875 17.171875 -3.8125 18.421875 -4.5 C 19.679688 -5.1875 20.84375 -6.132812 21.90625 -7.34375 L 21.90625 -27.875 Z M 26.8125 -27.875 "/></g></g><g style="fill:#444444;fill-opacity:1;"><g transform="translate(417.267502, 83.113229)"><path style="stroke:none" d="M 8.9375 -40.546875 L 8.9375 0 L 4.046875 0 L 4.046875 -40.546875 Z M 8.9375 -40.546875 "/></g></g><g style="fill:#444444;fill-opacity:1;"><g transform="translate(427.94635, 83.113229)"><path style="stroke:none" d="M 12.4375 0.4375 C 10.238281 0.4375 8.546875 -0.175781 7.359375 -1.40625 C 6.179688 -2.632812 5.59375 -4.40625 5.59375 -6.71875 L 5.59375 -23.78125 L 2.234375 -23.78125 C 1.929688 -23.78125 1.679688 -23.863281 1.484375 -24.03125 C 1.285156 -24.207031 1.1875 -24.484375 1.1875 -24.859375 L 1.1875 -26.8125 L 5.75 -27.390625 L 6.875 -36 C 6.9375 -36.269531 7.0625 -36.492188 7.25 -36.671875 C 7.445312 -36.847656 7.703125 -36.9375 8.015625 -36.9375 L 10.484375 -36.9375 L 10.484375 -27.328125 L 18.546875 -27.328125 L 18.546875 -23.78125 L 10.484375 -23.78125 L 10.484375 -7.046875 C 10.484375 -5.867188 10.765625 -4.992188 11.328125 -4.421875 C 11.898438 -3.859375 12.640625 -3.578125 13.546875 -3.578125 C 14.054688 -3.578125 14.5 -3.644531 14.875 -3.78125 C 15.25 -3.914062 15.570312 -4.066406 15.84375 -4.234375 C 16.125 -4.398438 16.359375 -4.550781 16.546875 -4.6875 C 16.742188 -4.832031 16.914062 -4.90625 17.0625 -4.90625 C 17.320312 -4.90625 17.550781 -4.75 17.75 -4.4375 L 19.1875 -2.09375 C 18.34375 -1.300781 17.320312 -0.679688 16.125 -0.234375 C 14.9375 0.210938 13.707031 0.4375 12.4375 0.4375 Z M 12.4375 0.4375 "/></g></g><g style="fill:#444444;fill-opacity:1;"><g transform="translate(59.189036, 121.126748)"><path style="stroke:none" d="M 7.40625 -8.390625 C 8.195312 -8.390625 8.910156 -8.5 9.546875 -8.71875 C 10.179688 -8.945312 10.71875 -9.257812 11.15625 -9.65625 C 11.601562 -10.050781 11.945312 -10.515625 12.1875 -11.046875 C 12.425781 -11.585938 12.546875 -12.175781 12.546875 -12.8125 C 12.546875 -14.207031 12.113281 -15.28125 11.25 -16.03125 C 10.394531 -16.789062 9.113281 -17.171875 7.40625 -17.171875 L 4.015625 -17.171875 L 4.015625 -8.390625 Z M 7.40625 -18.21875 C 9.539062 -18.21875 11.148438 -17.75 12.234375 -16.8125 C 13.316406 -15.875 13.859375 -14.539062 13.859375 -12.8125 C 13.859375 -12.007812 13.707031 -11.273438 13.40625 -10.609375 C 13.113281 -9.941406 12.6875 -9.363281 12.125 -8.875 C 11.570312 -8.394531 10.894531 -8.019531 10.09375 -7.75 C 9.289062 -7.476562 8.394531 -7.34375 7.40625 -7.34375 L 4.015625 -7.34375 L 4.015625 0 L 2.6875 0 L 2.6875 -18.21875 Z M 7.40625 -18.21875 "/></g></g><g style="fill:#444444;fill-opacity:1;"><g transform="translate(74.071293, 121.126748)"><path style="stroke:none" d="M 13.640625 -1.09375 L 13.609375 0 L 2.6875 0 L 2.6875 -18.21875 L 13.609375 -18.21875 L 13.609375 -17.125 L 4.015625 -17.125 L 4.015625 -9.765625 L 12 -9.765625 L 12 -8.6875 L 4.015625 -8.6875 L 4.015625 -1.09375 Z M 12.484375 -23.703125 L 8.265625 -20.015625 C 8.179688 -19.941406 8.101562 -19.894531 8.03125 -19.875 C 7.957031 -19.863281 7.867188 -19.859375 7.765625 -19.859375 L 6.921875 -19.859375 L 10.25 -23.421875 C 10.351562 -23.535156 10.457031 -23.609375 10.5625 -23.640625 C 10.664062 -23.679688 10.820312 -23.703125 11.03125 -23.703125 Z M 12.484375 -23.703125 "/></g></g><g style="fill:#444444;fill-opacity:1;"><g transform="translate(89.005036, 121.126748)"><path style="stroke:none" d="M 18.03125 -9.109375 C 18.03125 -7.703125 17.820312 -6.4375 17.40625 -5.3125 C 16.988281 -4.1875 16.394531 -3.226562 15.625 -2.4375 C 14.863281 -1.65625 13.945312 -1.050781 12.875 -0.625 C 11.8125 -0.207031 10.632812 0 9.34375 0 L 2.6875 0 L 2.6875 -18.21875 L 9.34375 -18.21875 C 10.632812 -18.21875 11.8125 -18.003906 12.875 -17.578125 C 13.945312 -17.160156 14.863281 -16.554688 15.625 -15.765625 C 16.394531 -14.984375 16.988281 -14.03125 17.40625 -12.90625 C 17.820312 -11.78125 18.03125 -10.515625 18.03125 -9.109375 Z M 16.671875 -9.109375 C 16.671875 -10.378906 16.492188 -11.515625 16.140625 -12.515625 C 15.796875 -13.515625 15.300781 -14.351562 14.65625 -15.03125 C 14.007812 -15.71875 13.234375 -16.242188 12.328125 -16.609375 C 11.429688 -16.972656 10.4375 -17.15625 9.34375 -17.15625 L 4.015625 -17.15625 L 4.015625 -1.0625 L 9.34375 -1.0625 C 10.4375 -1.0625 11.429688 -1.242188 12.328125 -1.609375 C 13.234375 -1.972656 14.007812 -2.492188 14.65625 -3.171875 C 15.300781 -3.859375 15.796875 -4.703125 16.140625 -5.703125 C 16.492188 -6.703125 16.671875 -7.835938 16.671875 -9.109375 Z M 16.671875 -9.109375 "/></g></g><g style="fill:#444444;fill-opacity:1;"><g transform="translate(108.573388, 121.126748)"><path style="stroke:none" d="M 4.015625 0 L 2.6875 0 L 2.6875 -18.21875 L 4.015625 -18.21875 Z M 4.015625 0 "/></g></g><g style="fill:#444444;fill-opacity:1;"><g transform="translate(115.280701, 121.126748)"><path style="stroke:none" d="M 12.515625 -6.625 L 8.8125 -15.828125 C 8.675781 -16.128906 8.550781 -16.488281 8.4375 -16.90625 C 8.382812 -16.695312 8.328125 -16.5 8.265625 -16.3125 C 8.203125 -16.132812 8.140625 -15.96875 8.078125 -15.8125 L 4.359375 -6.625 Z M 16.546875 0 L 15.53125 0 C 15.40625 0 15.300781 -0.03125 15.21875 -0.09375 C 15.144531 -0.15625 15.085938 -0.238281 15.046875 -0.34375 L 12.90625 -5.640625 L 3.96875 -5.640625 L 1.828125 -0.34375 C 1.796875 -0.25 1.734375 -0.164062 1.640625 -0.09375 C 1.554688 -0.03125 1.457031 0 1.34375 0 L 0.328125 0 L 7.796875 -18.21875 L 9.09375 -18.21875 Z M 16.546875 0 "/></g></g><g style="fill:#444444;fill-opacity:1;"><g transform="translate(132.158403, 121.126748)"><path style="stroke:none" d="M 14.53125 -17.09375 L 8.140625 -17.09375 L 8.140625 0 L 6.8125 0 L 6.8125 -17.09375 L 0.375 -17.09375 L 0.375 -18.21875 L 14.53125 -18.21875 Z M 14.53125 -17.09375 "/></g></g><g style="fill:#444444;fill-opacity:1;"><g transform="translate(147.066393, 121.126748)"><path style="stroke:none" d="M 7.171875 -9.21875 C 7.972656 -9.21875 8.691406 -9.3125 9.328125 -9.5 C 9.972656 -9.695312 10.515625 -9.972656 10.953125 -10.328125 C 11.398438 -10.691406 11.738281 -11.128906 11.96875 -11.640625 C 12.207031 -12.148438 12.328125 -12.71875 12.328125 -13.34375 C 12.328125 -14.644531 11.898438 -15.609375 11.046875 -16.234375 C 10.203125 -16.859375 8.972656 -17.171875 7.359375 -17.171875 L 4.015625 -17.171875 L 4.015625 -9.21875 Z M 15.25 0 L 14.125 0 C 13.976562 0 13.851562 -0.0195312 13.75 -0.0625 C 13.65625 -0.113281 13.566406 -0.203125 13.484375 -0.328125 L 7.640625 -7.71875 C 7.566406 -7.8125 7.492188 -7.894531 7.421875 -7.96875 C 7.347656 -8.039062 7.265625 -8.09375 7.171875 -8.125 C 7.085938 -8.164062 6.984375 -8.191406 6.859375 -8.203125 C 6.734375 -8.222656 6.582031 -8.234375 6.40625 -8.234375 L 4.015625 -8.234375 L 4.015625 0 L 2.6875 0 L 2.6875 -18.21875 L 7.359375 -18.21875 C 9.453125 -18.21875 11.019531 -17.8125 12.0625 -17 C 13.101562 -16.1875 13.625 -14.992188 13.625 -13.421875 C 13.625 -12.734375 13.503906 -12.097656 13.265625 -11.515625 C 13.023438 -10.941406 12.675781 -10.4375 12.21875 -10 C 11.769531 -9.570312 11.222656 -9.21875 10.578125 -8.9375 C 9.941406 -8.664062 9.226562 -8.484375 8.4375 -8.390625 C 8.632812 -8.265625 8.816406 -8.09375 8.984375 -7.875 Z M 15.25 0 "/></g></g><g style="fill:#444444;fill-opacity:1;"><g transform="translate(162.695323, 121.126748)"><path style="stroke:none" d="M 13.640625 -1.09375 L 13.609375 0 L 2.6875 0 L 2.6875 -18.21875 L 13.609375 -18.21875 L 13.609375 -17.125 L 4.015625 -17.125 L 4.015625 -9.765625 L 12 -9.765625 L 12 -8.6875 L 4.015625 -8.6875 L 4.015625 -1.09375 Z M 13.640625 -1.09375 "/></g></g><g style="fill:#444444;fill-opacity:1;"><g transform="translate(177.629066, 121.126748)"><path style="stroke:none" d=""/></g></g><g style="fill:#444444;fill-opacity:1;"><g transform="translate(184.6196, 121.126748)"><path style="stroke:none" d="M 18.03125 -9.109375 C 18.03125 -7.703125 17.820312 -6.4375 17.40625 -5.3125 C 16.988281 -4.1875 16.394531 -3.226562 15.625 -2.4375 C 14.863281 -1.65625 13.945312 -1.050781 12.875 -0.625 C 11.8125 -0.207031 10.632812 0 9.34375 0 L 2.6875 0 L 2.6875 -18.21875 L 9.34375 -18.21875 C 10.632812 -18.21875 11.8125 -18.003906 12.875 -17.578125 C 13.945312 -17.160156 14.863281 -16.554688 15.625 -15.765625 C 16.394531 -14.984375 16.988281 -14.03125 17.40625 -12.90625 C 17.820312 -11.78125 18.03125 -10.515625 18.03125 -9.109375 Z M 16.671875 -9.109375 C 16.671875 -10.378906 16.492188 -11.515625 16.140625 -12.515625 C 15.796875 -13.515625 15.300781 -14.351562 14.65625 -15.03125 C 14.007812 -15.71875 13.234375 -16.242188 12.328125 -16.609375 C 11.429688 -16.972656 10.4375 -17.15625 9.34375 -17.15625 L 4.015625 -17.15625 L 4.015625 -1.0625 L 9.34375 -1.0625 C 10.4375 -1.0625 11.429688 -1.242188 12.328125 -1.609375 C 13.234375 -1.972656 14.007812 -2.492188 14.65625 -3.171875 C 15.300781 -3.859375 15.796875 -4.703125 16.140625 -5.703125 C 16.492188 -6.703125 16.671875 -7.835938 16.671875 -9.109375 Z M 16.671875 -9.109375 "/></g></g><g style="fill:#444444;fill-opacity:1;"><g transform="translate(204.187953, 121.126748)"><path style="stroke:none" d="M 9.359375 -0.9375 C 10.234375 -0.9375 11.015625 -1.085938 11.703125 -1.390625 C 12.398438 -1.703125 12.988281 -2.125 13.46875 -2.65625 C 13.945312 -3.195312 14.3125 -3.832031 14.5625 -4.5625 C 14.820312 -5.300781 14.953125 -6.097656 14.953125 -6.953125 L 14.953125 -18.21875 L 16.265625 -18.21875 L 16.265625 -6.953125 C 16.265625 -5.953125 16.101562 -5.015625 15.78125 -4.140625 C 15.46875 -3.265625 15.007812 -2.503906 14.40625 -1.859375 C 13.8125 -1.210938 13.085938 -0.703125 12.234375 -0.328125 C 11.378906 0.0351562 10.421875 0.21875 9.359375 0.21875 C 8.296875 0.21875 7.335938 0.0351562 6.484375 -0.328125 C 5.628906 -0.703125 4.898438 -1.210938 4.296875 -1.859375 C 3.703125 -2.503906 3.242188 -3.265625 2.921875 -4.140625 C 2.609375 -5.015625 2.453125 -5.953125 2.453125 -6.953125 L 2.453125 -18.21875 L 3.78125 -18.21875 L 3.78125 -6.96875 C 3.78125 -6.113281 3.90625 -5.316406 4.15625 -4.578125 C 4.414062 -3.847656 4.78125 -3.210938 5.25 -2.671875 C 5.726562 -2.128906 6.3125 -1.703125 7 -1.390625 C 7.695312 -1.085938 8.484375 -0.9375 9.359375 -0.9375 Z M 9.359375 -0.9375 "/></g></g><g style="fill:#444444;fill-opacity:1;"><g transform="translate(222.906623, 121.126748)"><path style="stroke:none" d=""/></g></g><g style="fill:#444444;fill-opacity:1;"><g transform="translate(229.897157, 121.126748)"><path style="stroke:none" d="M 18.03125 -9.109375 C 18.03125 -7.703125 17.820312 -6.4375 17.40625 -5.3125 C 16.988281 -4.1875 16.394531 -3.226562 15.625 -2.4375 C 14.863281 -1.65625 13.945312 -1.050781 12.875 -0.625 C 11.8125 -0.207031 10.632812 0 9.34375 0 L 2.6875 0 L 2.6875 -18.21875 L 9.34375 -18.21875 C 10.632812 -18.21875 11.8125 -18.003906 12.875 -17.578125 C 13.945312 -17.160156 14.863281 -16.554688 15.625 -15.765625 C 16.394531 -14.984375 16.988281 -14.03125 17.40625 -12.90625 C 17.820312 -11.78125 18.03125 -10.515625 18.03125 -9.109375 Z M 16.671875 -9.109375 C 16.671875 -10.378906 16.492188 -11.515625 16.140625 -12.515625 C 15.796875 -13.515625 15.300781 -14.351562 14.65625 -15.03125 C 14.007812 -15.71875 13.234375 -16.242188 12.328125 -16.609375 C 11.429688 -16.972656 10.4375 -17.15625 9.34375 -17.15625 L 4.015625 -17.15625 L 4.015625 -1.0625 L 9.34375 -1.0625 C 10.4375 -1.0625 11.429688 -1.242188 12.328125 -1.609375 C 13.234375 -1.972656 14.007812 -2.492188 14.65625 -3.171875 C 15.300781 -3.859375 15.796875 -4.703125 16.140625 -5.703125 C 16.492188 -6.703125 16.671875 -7.835938 16.671875 -9.109375 Z M 16.671875 -9.109375 "/></g></g><g style="fill:#444444;fill-opacity:1;"><g transform="translate(249.46551, 121.126748)"><path style="stroke:none" d="M 13.640625 -1.09375 L 13.609375 0 L 2.6875 0 L 2.6875 -18.21875 L 13.609375 -18.21875 L 13.609375 -17.125 L 4.015625 -17.125 L 4.015625 -9.765625 L 12 -9.765625 L 12 -8.6875 L 4.015625 -8.6875 L 4.015625 -1.09375 Z M 12.484375 -23.703125 L 8.265625 -20.015625 C 8.179688 -19.941406 8.101562 -19.894531 8.03125 -19.875 C 7.957031 -19.863281 7.867188 -19.859375 7.765625 -19.859375 L 6.921875 -19.859375 L 10.25 -23.421875 C 10.351562 -23.535156 10.457031 -23.609375 10.5625 -23.640625 C 10.664062 -23.679688 10.820312 -23.703125 11.03125 -23.703125 Z M 12.484375 -23.703125 "/></g></g><g style="fill:#444444;fill-opacity:1;"><g transform="translate(264.399253, 121.126748)"><path style="stroke:none" d="M 16.546875 -18.21875 L 9.03125 0 L 7.859375 0 L 0.328125 -18.21875 L 1.375 -18.21875 C 1.5 -18.21875 1.597656 -18.1875 1.671875 -18.125 C 1.753906 -18.0625 1.816406 -17.976562 1.859375 -17.875 L 8.0625 -2.75 C 8.125 -2.5625 8.191406 -2.359375 8.265625 -2.140625 C 8.335938 -1.929688 8.398438 -1.71875 8.453125 -1.5 C 8.503906 -1.71875 8.5625 -1.929688 8.625 -2.140625 C 8.6875 -2.359375 8.753906 -2.5625 8.828125 -2.75 L 15.03125 -17.875 C 15.0625 -17.96875 15.117188 -18.046875 15.203125 -18.109375 C 15.285156 -18.179688 15.390625 -18.21875 15.515625 -18.21875 Z M 16.546875 -18.21875 "/></g></g><g style="fill:#444444;fill-opacity:1;"><g transform="translate(281.276955, 121.126748)"><path style="stroke:none" d="M 13.640625 -1.09375 L 13.609375 0 L 2.6875 0 L 2.6875 -18.21875 L 13.609375 -18.21875 L 13.609375 -17.125 L 4.015625 -17.125 L 4.015625 -9.765625 L 12 -9.765625 L 12 -8.6875 L 4.015625 -8.6875 L 4.015625 -1.09375 Z M 13.640625 -1.09375 "/></g></g><g style="fill:#444444;fill-opacity:1;"><g transform="translate(296.210698, 121.126748)"><path style="stroke:none" d="M 12.640625 -1.125 L 12.640625 0 L 2.6875 0 L 2.6875 -18.21875 L 4.015625 -18.21875 L 4.015625 -1.125 Z M 12.640625 -1.125 "/></g></g><g style="fill:#444444;fill-opacity:1;"><g transform="translate(309.23911, 121.126748)"><path style="stroke:none" d="M 18.875 -9.109375 C 18.875 -7.703125 18.660156 -6.425781 18.234375 -5.28125 C 17.816406 -4.132812 17.226562 -3.15625 16.46875 -2.34375 C 15.707031 -1.539062 14.789062 -0.914062 13.71875 -0.46875 C 12.644531 -0.03125 11.46875 0.1875 10.1875 0.1875 C 8.894531 0.1875 7.71875 -0.03125 6.65625 -0.46875 C 5.59375 -0.914062 4.675781 -1.539062 3.90625 -2.34375 C 3.144531 -3.15625 2.550781 -4.132812 2.125 -5.28125 C 1.707031 -6.425781 1.5 -7.703125 1.5 -9.109375 C 1.5 -10.515625 1.707031 -11.789062 2.125 -12.9375 C 2.550781 -14.082031 3.144531 -15.054688 3.90625 -15.859375 C 4.675781 -16.671875 5.59375 -17.300781 6.65625 -17.75 C 7.71875 -18.195312 8.894531 -18.421875 10.1875 -18.421875 C 11.46875 -18.421875 12.644531 -18.195312 13.71875 -17.75 C 14.789062 -17.3125 15.707031 -16.6875 16.46875 -15.875 C 17.226562 -15.0625 17.816406 -14.082031 18.234375 -12.9375 C 18.660156 -11.789062 18.875 -10.515625 18.875 -9.109375 Z M 17.515625 -9.109375 C 17.515625 -10.378906 17.335938 -11.519531 16.984375 -12.53125 C 16.628906 -13.550781 16.128906 -14.410156 15.484375 -15.109375 C 14.835938 -15.816406 14.0625 -16.359375 13.15625 -16.734375 C 12.257812 -17.109375 11.269531 -17.296875 10.1875 -17.296875 C 9.101562 -17.296875 8.109375 -17.109375 7.203125 -16.734375 C 6.304688 -16.359375 5.53125 -15.816406 4.875 -15.109375 C 4.226562 -14.410156 3.726562 -13.550781 3.375 -12.53125 C 3.019531 -11.519531 2.84375 -10.378906 2.84375 -9.109375 C 2.84375 -7.835938 3.019531 -6.695312 3.375 -5.6875 C 3.726562 -4.675781 4.226562 -3.816406 4.875 -3.109375 C 5.53125 -2.410156 6.304688 -1.875 7.203125 -1.5 C 8.109375 -1.132812 9.101562 -0.953125 10.1875 -0.953125 C 11.269531 -0.953125 12.257812 -1.132812 13.15625 -1.5 C 14.0625 -1.875 14.835938 -2.410156 15.484375 -3.109375 C 16.128906 -3.816406 16.628906 -4.675781 16.984375 -5.6875 C 17.335938 -6.695312 17.515625 -7.835938 17.515625 -9.109375 Z M 17.515625 -9.109375 "/></g></g><g style="fill:#444444;fill-opacity:1;"><g transform="translate(329.618517, 121.126748)"><path style="stroke:none" d="M 7.40625 -8.390625 C 8.195312 -8.390625 8.910156 -8.5 9.546875 -8.71875 C 10.179688 -8.945312 10.71875 -9.257812 11.15625 -9.65625 C 11.601562 -10.050781 11.945312 -10.515625 12.1875 -11.046875 C 12.425781 -11.585938 12.546875 -12.175781 12.546875 -12.8125 C 12.546875 -14.207031 12.113281 -15.28125 11.25 -16.03125 C 10.394531 -16.789062 9.113281 -17.171875 7.40625 -17.171875 L 4.015625 -17.171875 L 4.015625 -8.390625 Z M 7.40625 -18.21875 C 9.539062 -18.21875 11.148438 -17.75 12.234375 -16.8125 C 13.316406 -15.875 13.859375 -14.539062 13.859375 -12.8125 C 13.859375 -12.007812 13.707031 -11.273438 13.40625 -10.609375 C 13.113281 -9.941406 12.6875 -9.363281 12.125 -8.875 C 11.570312 -8.394531 10.894531 -8.019531 10.09375 -7.75 C 9.289062 -7.476562 8.394531 -7.34375 7.40625 -7.34375 L 4.015625 -7.34375 L 4.015625 0 L 2.6875 0 L 2.6875 -18.21875 Z M 7.40625 -18.21875 "/></g></g><g style="fill:#444444;fill-opacity:1;"><g transform="translate(344.500774, 121.126748)"><path style="stroke:none" d="M 7.40625 -8.390625 C 8.195312 -8.390625 8.910156 -8.5 9.546875 -8.71875 C 10.179688 -8.945312 10.71875 -9.257812 11.15625 -9.65625 C 11.601562 -10.050781 11.945312 -10.515625 12.1875 -11.046875 C 12.425781 -11.585938 12.546875 -12.175781 12.546875 -12.8125 C 12.546875 -14.207031 12.113281 -15.28125 11.25 -16.03125 C 10.394531 -16.789062 9.113281 -17.171875 7.40625 -17.171875 L 4.015625 -17.171875 L 4.015625 -8.390625 Z M 7.40625 -18.21875 C 9.539062 -18.21875 11.148438 -17.75 12.234375 -16.8125 C 13.316406 -15.875 13.859375 -14.539062 13.859375 -12.8125 C 13.859375 -12.007812 13.707031 -11.273438 13.40625 -10.609375 C 13.113281 -9.941406 12.6875 -9.363281 12.125 -8.875 C 11.570312 -8.394531 10.894531 -8.019531 10.09375 -7.75 C 9.289062 -7.476562 8.394531 -7.34375 7.40625 -7.34375 L 4.015625 -7.34375 L 4.015625 0 L 2.6875 0 L 2.6875 -18.21875 Z M 7.40625 -18.21875 "/></g></g><g style="fill:#444444;fill-opacity:1;"><g transform="translate(359.38303, 121.126748)"><path style="stroke:none" d="M 13.640625 -1.09375 L 13.609375 0 L 2.6875 0 L 2.6875 -18.21875 L 13.609375 -18.21875 L 13.609375 -17.125 L 4.015625 -17.125 L 4.015625 -9.765625 L 12 -9.765625 L 12 -8.6875 L 4.015625 -8.6875 L 4.015625 -1.09375 Z M 13.640625 -1.09375 "/></g></g><g style="fill:#444444;fill-opacity:1;"><g transform="translate(374.316791, 121.126748)"><path style="stroke:none" d="M 20.6875 -18.21875 L 20.6875 0 L 19.546875 0 L 19.546875 -15.53125 C 19.546875 -15.75 19.554688 -15.984375 19.578125 -16.234375 L 12.40625 -3.5 C 12.289062 -3.28125 12.117188 -3.171875 11.890625 -3.171875 L 11.6875 -3.171875 C 11.46875 -3.171875 11.296875 -3.28125 11.171875 -3.5 L 3.8125 -16.265625 C 3.832031 -16.003906 3.84375 -15.757812 3.84375 -15.53125 L 3.84375 0 L 2.6875 0 L 2.6875 -18.21875 L 3.609375 -18.21875 C 3.722656 -18.21875 3.8125 -18.203125 3.875 -18.171875 C 3.945312 -18.148438 4.019531 -18.082031 4.09375 -17.96875 L 11.453125 -5.296875 C 11.578125 -5.054688 11.6875 -4.800781 11.78125 -4.53125 C 11.832031 -4.664062 11.882812 -4.800781 11.9375 -4.9375 C 12 -5.070312 12.066406 -5.195312 12.140625 -5.3125 L 19.28125 -17.96875 C 19.351562 -18.082031 19.425781 -18.148438 19.5 -18.171875 C 19.570312 -18.203125 19.664062 -18.21875 19.78125 -18.21875 Z M 20.6875 -18.21875 "/></g></g><g style="fill:#444444;fill-opacity:1;"><g transform="translate(397.695805, 121.126748)"><path style="stroke:none" d="M 13.640625 -1.09375 L 13.609375 0 L 2.6875 0 L 2.6875 -18.21875 L 13.609375 -18.21875 L 13.609375 -17.125 L 4.015625 -17.125 L 4.015625 -9.765625 L 12 -9.765625 L 12 -8.6875 L 4.015625 -8.6875 L 4.015625 -1.09375 Z M 13.640625 -1.09375 "/></g></g><g style="fill:#444444;fill-opacity:1;"><g transform="translate(412.629567, 121.126748)"><path style="stroke:none" d="M 16.75 -18.21875 L 16.75 0 L 16.125 0 C 16.019531 0 15.929688 -0.015625 15.859375 -0.046875 C 15.785156 -0.0859375 15.710938 -0.15625 15.640625 -0.25 L 3.8125 -16.0625 C 3.832031 -15.8125 3.84375 -15.566406 3.84375 -15.328125 L 3.84375 0 L 2.6875 0 L 2.6875 -18.21875 L 3.34375 -18.21875 C 3.46875 -18.21875 3.5625 -18.203125 3.625 -18.171875 C 3.6875 -18.140625 3.757812 -18.070312 3.84375 -17.96875 L 15.640625 -2.203125 C 15.617188 -2.460938 15.609375 -2.707031 15.609375 -2.9375 L 15.609375 -18.21875 Z M 16.75 -18.21875 "/></g></g><g style="fill:#444444;fill-opacity:1;"><g transform="translate(432.069157, 121.126748)"><path style="stroke:none" d="M 14.53125 -17.09375 L 8.140625 -17.09375 L 8.140625 0 L 6.8125 0 L 6.8125 -17.09375 L 0.375 -17.09375 L 0.375 -18.21875 L 14.53125 -18.21875 Z M 14.53125 -17.09375 "/></g></g><g style="fill:#444444;fill-opacity:1;"><g transform="translate(446.993788, 121.126748)"><path style="stroke:none" d=""/></g></g><g clip-rule="nonzero" clip-path="url(#10e1b1c97e)"><g mask="url(#aaf7bf9447)" transform="matrix(1,0,0,1,0.000000000000000111,40)"><g clip-path="url(#b81ff867e8)"><g clip-rule="nonzero" clip-path="url(#8d2bb5e017)"><g clip-rule="nonzero" clip-path="url(#59d3415901)"><g clip-rule="nonzero" clip-path="url(#be159b885e)"><path style=" stroke:none;fill-rule:nonzero;fill:#94bfa3;fill-opacity:1;" d="M 5.007812 0.59375 L 41.277344 4.699219 L 37.140625 41.25 L 0.871094 37.148438 Z M 5.007812 0.59375 "/></g></g></g></g><mask id="aaf7bf9447"><g filter="url(#7850d8f0e5)"><rect x="0" width="450" y="0" height="127.500001" style="fill:#000000;fill-opacity:0.9;stroke:none;"/></g></mask></g></g><g clip-rule="nonzero" clip-path="url(#d2b1ecf021)"><g clip-rule="nonzero" clip-path="url(#1d456a68d5)"><g clip-rule="nonzero" clip-path="url(#da9b1992bc)"><g clip-rule="nonzero" clip-path="url(#3cef1a9455)"><path style="fill:none;stroke-width:4;stroke-linecap:butt;stroke-linejoin:miter;stroke:#444444;stroke-opacity:1;stroke-miterlimit:4;" d="M 8.218381 0.00227619 L 40.623677 0.00151405 C 45.166241 -0.000440893 48.844443 3.678371 48.845875 8.215718 L 48.844609 40.916339 C 48.846041 45.453685 45.162011 49.132409 40.624665 49.133842 L 8.219368 49.134604 C 3.682022 49.136036 -0.00192 45.452529 0.00186551 40.914659 L -0.0015636 8.219779 C 0.00169909 3.676692 3.680511 -0.00150931 8.218381 0.00227619 Z M 8.218381 0.00227619 " transform="matrix(0.741221,0.0742723,-0.0742723,0.741221,7.935879,45.114478)"/></g></g></g></g><g clip-rule="nonzero" clip-path="url(#6d94391cd3)"><g clip-rule="nonzero" clip-path="url(#d6af9ff770)"><g clip-rule="nonzero" clip-path="url(#97c800de79)"><path style=" stroke:none;fill-rule:nonzero;fill:#e6d9c4;fill-opacity:1;" d="M 8.84375 3.339844 L 45.113281 -0.746094 L 49.234375 35.808594 L 12.960938 39.894531 Z M 8.84375 3.339844 "/></g></g></g><g clip-rule="nonzero" clip-path="url(#c7b3a9b064)"><g clip-rule="nonzero" clip-path="url(#a04f8d1d26)"><g clip-rule="nonzero" clip-path="url(#bafdb81411)"><g clip-rule="nonzero" clip-path="url(#9f4f88d59d)"><path style="fill:none;stroke-width:4;stroke-linecap:butt;stroke-linejoin:miter;stroke:#444444;stroke-opacity:1;stroke-miterlimit:4;" d="M 8.217007 0.00139662 L 40.62575 0.00147155 C 45.16523 0.00108498 48.845854 3.680682 48.841025 8.219617 L 48.842283 40.918476 C 48.843215 45.45274 45.163618 49.133364 40.624138 49.133751 L 8.220609 49.13422 C 3.681129 49.134607 0.000505872 45.45501 0.000119296 40.91553 L -0.00113885 8.216671 C -0.00152543 3.677191 3.677527 0.00178319 8.217007 0.00139662 Z M 8.217007 0.00139662 " transform="matrix(0.740902,-0.0773825,0.0773825,0.740902,13.681424,6.291067)"/></g></g></g></g><g mask="url(#33304cfc65)" transform="matrix(1,0,0,1,11,85)"><g clip-path="url(#ed61a97e1a)"><g clip-rule="nonzero" clip-path="url(#4cf7b58078)"><g clip-rule="nonzero" clip-path="url(#775865f1c8)"><path style=" stroke:none;fill-rule:nonzero;fill:#005f73;fill-opacity:1;" d="M 0.957031 0.285156 L 37.457031 0.285156 L 37.457031 37.214844 L 0.957031 37.214844 Z M 0.957031 0.285156 "/></g></g></g><mask id="33304cfc65"><g filter="url(#7850d8f0e5)"><rect x="0" width="450" y="0" height="127.500001" style="fill:#000000;fill-opacity:0.9;stroke:none;"/></g></mask></g><g clip-rule="nonzero" clip-path="url(#53f4b3188c)"><g clip-rule="nonzero" clip-path="url(#5a839e5725)"><path style="fill:none;stroke-width:4;stroke-linecap:butt;stroke-linejoin:miter;stroke:#444444;stroke-opacity:1;stroke-miterlimit:4;" d="M 8.215692 0.00000289136 L 40.627398 0.00000289136 C 45.163254 0.00000289136 48.844376 3.681125 48.844376 8.216981 L 48.844376 40.917094 C 48.844376 45.45295 45.163254 49.134072 40.627398 49.134072 L 8.215692 49.134072 C 3.679836 49.134072 -0.00128607 45.45295 -0.00128607 40.917094 L -0.00128607 8.216981 C -0.00128607 3.681125 3.679836 0.00000289136 8.215692 0.00000289136 Z M 8.215692 0.00000289136 " transform="matrix(0.744932,0,0,0.744932,15.489239,89.433592)"/></g></g></g></svg>