<svg xmlns="http://www.w3.org/2000/svg" xmlns:xlink="http://www.w3.org/1999/xlink" width="512" zoomAndPan="magnify" viewBox="0 0 384 383.999986" height="512" preserveAspectRatio="xMidYMid meet" version="1.2"><defs><filter x="0%" y="0%" width="100%" filterUnits="objectBoundingBox" id="ea9330c46b" height="100%"><feColorMatrix values="0 0 0 0 1 0 0 0 0 1 0 0 0 0 1 0 0 0 1 0" type="matrix" in="SourceGraphic"/></filter><clipPath id="97ff409e17"><path d="M 1 0.0390625 L 123 0.0390625 L 123 123 L 1 123 Z M 1 0.0390625 "/></clipPath><clipPath id="88454da604"><path d="M 13.421875 0.101562 L 123.175781 12.519531 L 110.660156 123.132812 L 0.90625 110.714844 Z M 13.421875 0.101562 "/></clipPath><clipPath id="dc370f82c0"><path d="M 19.382812 0.777344 L 117.214844 11.84375 C 118.792969 12.023438 120.238281 12.824219 121.230469 14.066406 C 122.222656 15.3125 122.679688 16.898438 122.5 18.480469 L 111.359375 116.964844 C 111.179688 118.546875 110.378906 119.992188 109.136719 120.984375 C 107.890625 121.976562 106.304688 122.429688 104.722656 122.253906 L 6.890625 111.183594 C 5.3125 111.007812 3.867188 110.207031 2.875 108.960938 C 1.882812 107.71875 1.425781 106.128906 1.605469 104.546875 L 12.746094 6.066406 C 12.925781 4.484375 13.726562 3.039062 14.96875 2.046875 C 16.214844 1.054688 17.800781 0.597656 19.382812 0.777344 Z M 19.382812 0.777344 "/></clipPath><clipPath id="efbd775e23"><rect x="0" width="124" y="0" height="124"/></clipPath><clipPath id="c6571fe87f"><path d="M 122 139 L 243 139 L 243 260 L 122 260 Z M 122 139 "/></clipPath><clipPath id="da41926caf"><path d="M 133.285156 138.773438 L 242.988281 149.765625 L 231.921875 260.210938 L 122.21875 249.21875 Z M 133.285156 138.773438 "/></clipPath><clipPath id="be9049cd2f"><path d="M 133.285156 138.773438 L 243.015625 149.769531 L 231.746094 262.238281 L 122.015625 251.246094 Z M 133.285156 138.773438 "/></clipPath><clipPath id="f3eb47e8e5"><path d="M 139.246094 139.371094 L 237.027344 149.167969 C 238.609375 149.328125 240.0625 150.105469 241.066406 151.335938 C 242.074219 152.566406 242.546875 154.144531 242.390625 155.722656 L 232.527344 254.160156 C 232.367188 255.738281 231.589844 257.191406 230.359375 258.199219 C 229.128906 259.203125 227.550781 259.679688 225.96875 259.519531 L 128.1875 249.722656 C 126.609375 249.5625 125.15625 248.785156 124.148438 247.554688 C 123.144531 246.324219 122.667969 244.746094 122.828125 243.167969 L 132.691406 144.730469 C 132.847656 143.152344 133.628906 141.699219 134.859375 140.691406 C 136.085938 139.6875 137.664062 139.210938 139.246094 139.371094 Z M 139.246094 139.371094 "/></clipPath><clipPath id="34bbe1e29f"><path d="M 136 0 L 258 0 L 258 123 L 136 123 Z M 136 0 "/></clipPath><clipPath id="ddc7814705"><path d="M 136.03125 12.367188 L 245.789062 0 L 258.253906 110.617188 L 148.492188 122.984375 Z M 136.03125 12.367188 "/></clipPath><clipPath id="3f9e4220ee"><path d="M 141.992188 11.695312 L 239.828125 0.671875 C 241.410156 0.492188 242.996094 0.949219 244.242188 1.941406 C 245.484375 2.933594 246.285156 4.378906 246.460938 5.960938 L 257.558594 104.449219 C 257.738281 106.03125 257.28125 107.621094 256.289062 108.863281 C 255.296875 110.109375 253.847656 110.90625 252.269531 111.085938 L 154.433594 122.105469 C 152.851562 122.285156 151.261719 121.828125 150.019531 120.835938 C 148.773438 119.84375 147.976562 118.398438 147.796875 116.816406 L 136.703125 18.328125 C 136.523438 16.746094 136.980469 15.160156 137.972656 13.914062 C 138.964844 12.671875 140.410156 11.871094 141.992188 11.695312 Z M 141.992188 11.695312 "/></clipPath><clipPath id="bae854ee61"><path d="M 151 10 L 272 10 L 272 132 L 151 132 Z M 151 10 "/></clipPath><clipPath id="76cdc3c3f7"><path d="M 150.671875 21.292969 L 260.324219 9.839844 L 271.855469 120.238281 L 162.199219 131.691406 Z M 150.671875 21.292969 "/></clipPath><clipPath id="d6a6451f17"><path d="M 150.671875 21.292969 L 260.351562 9.835938 L 272.09375 122.261719 L 162.414062 133.714844 Z M 150.671875 21.292969 "/></clipPath><clipPath id="467d1cc9e3"><path d="M 156.628906 20.671875 L 254.367188 10.460938 C 255.945312 10.296875 257.527344 10.765625 258.761719 11.765625 C 259.996094 12.765625 260.78125 14.214844 260.945312 15.796875 L 271.222656 114.1875 C 271.386719 115.769531 270.917969 117.347656 269.917969 118.582031 C 268.917969 119.816406 267.46875 120.601562 265.886719 120.765625 L 168.148438 130.976562 C 166.566406 131.140625 164.988281 130.671875 163.753906 129.671875 C 162.519531 128.671875 161.734375 127.222656 161.570312 125.640625 L 151.292969 27.25 C 151.128906 25.667969 151.597656 24.089844 152.597656 22.855469 C 153.597656 21.621094 155.046875 20.835938 156.628906 20.671875 Z M 156.628906 20.671875 "/></clipPath><clipPath id="55cd6f62b7"><path d="M 0.453125 0.34375 L 110.90625 0.34375 L 110.90625 112 L 0.453125 112 Z M 0.453125 0.34375 "/></clipPath><clipPath id="78e3e7ea35"><path d="M 6.453125 0.34375 L 104.90625 0.34375 C 106.5 0.34375 108.023438 0.976562 109.148438 2.101562 C 110.273438 3.226562 110.90625 4.753906 110.90625 6.34375 L 110.90625 105.9375 C 110.90625 107.53125 110.273438 109.058594 109.148438 110.183594 C 108.023438 111.308594 106.5 111.9375 104.90625 111.9375 L 6.453125 111.9375 C 4.859375 111.9375 3.335938 111.308594 2.210938 110.183594 C 1.085938 109.058594 0.453125 107.53125 0.453125 105.9375 L 0.453125 6.34375 C 0.453125 4.753906 1.085938 3.226562 2.210938 2.101562 C 3.335938 0.976562 4.859375 0.34375 6.453125 0.34375 Z M 6.453125 0.34375 "/></clipPath><clipPath id="c625eff380"><rect x="0" width="112" y="0" height="113"/></clipPath><clipPath id="d309e0dcd2"><path d="M 156.144531 272.886719 L 266.390625 272.886719 L 266.390625 383.886719 L 156.144531 383.886719 Z M 156.144531 272.886719 "/></clipPath><clipPath id="d1102bb4d3"><path d="M 162.132812 272.886719 L 260.402344 272.886719 C 261.992188 272.886719 263.515625 273.519531 264.636719 274.640625 C 265.761719 275.765625 266.390625 277.289062 266.390625 278.875 L 266.390625 377.804688 C 266.390625 379.394531 265.761719 380.914062 264.636719 382.039062 C 263.515625 383.164062 261.992188 383.792969 260.402344 383.792969 L 162.132812 383.792969 C 160.542969 383.792969 159.019531 383.164062 157.898438 382.039062 C 156.773438 380.914062 156.144531 379.394531 156.144531 377.804688 L 156.144531 278.875 C 156.144531 277.289062 156.773438 275.765625 157.898438 274.640625 C 159.019531 273.519531 160.542969 272.886719 162.132812 272.886719 Z M 162.132812 272.886719 "/></clipPath></defs><g id="1425e4b590"><g mask="url(#0e0ee9c6d1)" transform="matrix(1,0,0,1,111,125)"><g clip-path="url(#efbd775e23)"><g clip-rule="nonzero" clip-path="url(#97ff409e17)"><g clip-rule="nonzero" clip-path="url(#88454da604)"><g clip-rule="nonzero" clip-path="url(#dc370f82c0)"><path style=" stroke:none;fill-rule:nonzero;fill:#94bfa3;fill-opacity:1;" d="M 13.421875 0.101562 L 123.175781 12.519531 L 110.660156 123.132812 L 0.90625 110.714844 Z M 13.421875 0.101562 "/></g></g></g></g><mask id="0e0ee9c6d1"><g filter="url(#ea9330c46b)"><rect x="0" width="384" y="0" height="383.999986" style="fill:#000000;fill-opacity:0.9;stroke:none;"/></g></mask></g><g clip-rule="nonzero" clip-path="url(#c6571fe87f)"><g clip-rule="nonzero" clip-path="url(#da41926caf)"><g clip-rule="nonzero" clip-path="url(#be9049cd2f)"><g clip-rule="nonzero" clip-path="url(#f3eb47e8e5)"><path style="fill:none;stroke-width:12;stroke-linecap:butt;stroke-linejoin:miter;stroke:#444444;stroke-opacity:1;stroke-miterlimit:4;" d="M 7.999708 0.00140435 L 139.264211 -0.0000116475 C 141.388197 0.00215812 143.423052 0.841791 144.921202 2.343493 C 146.424543 3.844674 147.262916 5.879192 147.265418 7.997466 L 147.265972 140.143026 C 147.263282 142.26182 146.423649 144.296675 144.922468 145.800016 C 143.420766 147.298166 141.386769 148.141731 139.262783 148.139561 L 7.99828 148.140977 C 5.879486 148.138287 3.844631 147.298654 2.341289 145.797473 C 0.843139 144.295771 -0.000425117 142.261774 0.00226488 140.142979 L 0.00171047 7.99742 C -0.000791278 5.879145 0.844034 3.843771 2.345215 2.340429 C 3.841725 0.842799 5.875722 -0.000765415 7.999708 0.00140435 Z M 7.999708 0.00140435 " transform="matrix(0.744917,0.0746426,-0.0746426,0.744917,133.287081,138.772928)"/></g></g></g></g><g clip-rule="nonzero" clip-path="url(#34bbe1e29f)"><g clip-rule="nonzero" clip-path="url(#ddc7814705)"><g clip-rule="nonzero" clip-path="url(#3f9e4220ee)"><path style=" stroke:none;fill-rule:nonzero;fill:#e6d9c4;fill-opacity:1;" d="M 136.03125 12.367188 L 245.789062 0 L 258.253906 110.617188 L 148.492188 122.984375 Z M 136.03125 12.367188 "/></g></g></g><g clip-rule="nonzero" clip-path="url(#bae854ee61)"><g clip-rule="nonzero" clip-path="url(#76cdc3c3f7)"><g clip-rule="nonzero" clip-path="url(#d6a6451f17)"><g clip-rule="nonzero" clip-path="url(#467d1cc9e3)"><path style="fill:none;stroke-width:12;stroke-linecap:butt;stroke-linejoin:miter;stroke:#444444;stroke-opacity:1;stroke-miterlimit:4;" d="M 8.001432 0.00237752 L 139.265148 -0.00135198 C 141.384477 -0.000339072 143.42119 0.841918 144.922323 2.341709 C 146.423455 3.841501 147.265462 5.875756 147.263907 8.000275 L 147.265342 140.139855 C 147.263787 142.264374 146.422073 144.295897 144.922281 145.79703 C 143.422489 147.298162 141.388234 148.140169 139.263715 148.138614 L 7.999999 148.142343 C 5.87548 148.140788 3.843956 147.299074 2.342824 145.799282 C 0.841692 144.29949 -0.000315018 142.265235 0.0012399 140.140716 L -0.000195474 8.001136 C 0.00135944 5.876617 0.843074 3.845094 2.342866 2.343962 C 3.842658 0.842829 5.876913 0.000822601 8.001432 0.00237752 Z M 8.001432 0.00237752 " transform="matrix(0.744597,-0.0777683,0.0777683,0.744597,150.670879,21.292363)"/></g></g></g></g><g mask="url(#7e20a1507f)" transform="matrix(1,0,0,1,145,260)"><g clip-path="url(#c625eff380)"><g clip-rule="nonzero" clip-path="url(#55cd6f62b7)"><g clip-rule="nonzero" clip-path="url(#78e3e7ea35)"><path style=" stroke:none;fill-rule:nonzero;fill:#005f73;fill-opacity:1;" d="M 0.453125 0.34375 L 110.90625 0.34375 L 110.90625 112.09375 L 0.453125 112.09375 Z M 0.453125 0.34375 "/></g></g></g><mask id="7e20a1507f"><g filter="url(#ea9330c46b)"><rect x="0" width="384" y="0" height="383.999986" style="fill:#000000;fill-opacity:0.9;stroke:none;"/></g></mask></g><g clip-rule="nonzero" clip-path="url(#d309e0dcd2)"><g clip-rule="nonzero" clip-path="url(#d1102bb4d3)"><path style="fill:none;stroke-width:12;stroke-linecap:butt;stroke-linejoin:miter;stroke:#444444;stroke-opacity:1;stroke-miterlimit:4;" d="M 8.001054 -0.00183537 L 139.26385 -0.00183537 C 141.387472 -0.00183537 143.422392 0.843439 144.919885 2.340932 C 146.422595 3.843642 147.262652 5.878563 147.262652 7.996967 L 147.262652 140.141561 C 147.262652 142.265183 146.422595 144.294886 144.919885 145.797596 C 143.422392 147.300306 141.387472 148.140363 139.26385 148.140363 L 8.001054 148.140363 C 5.877432 148.140363 3.842512 147.300306 2.345019 145.797596 C 0.842309 144.294886 0.00225208 142.265183 0.00225208 140.141561 L 0.00225208 7.996967 C 0.00225208 5.878563 0.842309 3.843642 2.345019 2.340932 C 3.842512 0.843439 5.877432 -0.00183537 8.001054 -0.00183537 Z M 8.001054 -0.00183537 " transform="matrix(0.748647,0,0,0.748647,156.142845,272.888093)"/></g></g></g></svg>